<svg xmlns="http://www.w3.org/2000/svg" viewBox="0 0 163.45 58.89"><defs><style>.cls-1{fill:#c3c32f;}.cls-2{fill:#204493;}.cls-3{fill:#178040;}.cls-4{fill:#d02029;}</style></defs><title>Asset 8</title><g id="Layer_2" data-name="Layer 2"><g id="Layer_1-2" data-name="Layer 1"><path class="cls-1" d="M163.11,1.31a4.9,4.9,0,0,0-1.38,0c-1.31,0-2.65.2-3.94.11-1.89-.11-3.75,0-5.63,0-.88,0-1.78-.14-2.67-.14-3,0-5.91.09-8.87,0a19,19,0,0,0-2.39,0,5.16,5.16,0,0,1-2.67.11,10,10,0,0,0-.15,2.67c0,.4.27.72.23,1.13-.09.76-.47,1.48-.56,2.25A9.12,9.12,0,0,0,135.27,9c0,.64-.18,1.2-.2,1.83,0,.37.15.74.12,1.12s-.21.64-.24,1c-.11,1.45,0,2.9,0,4.36a13.52,13.52,0,0,0-.28,1.41c0,.72.45,1.37.44,2.11s-.32,1.4-.35,2.11c-.09,2.16.14,4.32,0,6.47,0,.56-.35,1-.39,1.55s.11,1.32.11,2c0,.48-.14.93-.14,1.4,0,1,.14,2.07.14,3.1,0,.56-.22,1.19-.17,1.71s.26.72.29,1.1-.13,1-.05,1.55c.14,1,.57,2.83-.21,3.66a8.27,8.27,0,0,1,.1,2.53c0,1.74,0,3.49.08,5.21a8.94,8.94,0,0,0,0,1.55c.07.29.27.56.33.85s0,.84.28,1.22a2.75,2.75,0,0,0,1.85.84,27.15,27.15,0,0,0,4.51.33c3.28.14,6.55,0,9.85.09.67,0,1.17.61,1.82.7a8.5,8.5,0,0,0,3.1-.05c.42-.11.81-.43,1.27-.51,1.26-.22,2.74.47,3.94-.09-.59-1.53-.24-2.67-.29-4.23a47.48,47.48,0,0,1-.2-5.2c.11-1.44.63-2.9.7-4.36,0-.45-.26-.83-.26-1.27a17.12,17.12,0,0,1,.3-2.25,35.72,35.72,0,0,0,.15-4.51,13.86,13.86,0,0,0-.08-1.82,5.36,5.36,0,0,1-.29-1.13c0-.84.44-1.68.46-2.53s-.23-1.68-.21-2.54c0-1.88.49-3.74.54-5.62,0-1-.16-2-.21-3,0-.52.13-1,.16-1.55s-.09-1.21-.07-1.83l-.14-.05c-.15-2.06.14-3.95.14-6h-.29a.82.82,0,0,0,.33-.14c.52-.41.43-1.26.42-1.83,0-1.4,0-2.81,0-4.22a5.93,5.93,0,0,1,.72-2C163.49,1.77,163.52,1.43,163.11,1.31ZM158.34,16.8c-.87.37-1.92-.12-2.8,0a7.39,7.39,0,0,0-1.69.89c-.39.16-1,.12-1.27.49a6.64,6.64,0,0,0-.48,2.61,9.35,9.35,0,0,0-.33,1.26,14,14,0,0,1,.07,1.83,13.77,13.77,0,0,0-.38,1.69c0,.82.21,1.61.19,2.39-.05,1.45-.3,2.91-.27,4.36,0,1.28.48,2.5.5,3.8,0,1.5-.26,3-.25,4.51,0,.77.49,1.46.52,2.25a26,26,0,0,1-.24,2.81c0,.66.18,1.3.08,2-.05.34-.25.65-.27,1a4.94,4.94,0,0,0,.27,1.12,8.08,8.08,0,0,1-.2,3.66c-.2.47-.71.56-1.18.68-1,.27-2.16,0-3.23.23-.53.14-.82.56-1.41.58-.89,0-1.41-.42-.85-1.21-.56-.62-.06-1,0-1.69a26.18,26.18,0,0,0,0-4.06c0-1.26-.15-2.54-.08-3.82.13-1.65.47-3.28.55-4.92,0-.56-.16-1.12-.18-1.69s.18-1.12.19-1.69-.2-.92-.22-1.4a11.35,11.35,0,0,1,.09-2.4c.09-.34.3-.64.37-1a13.29,13.29,0,0,0,.05-1.41c-.75-.84-.09-2,0-3,.08-.6-.08-1.23,0-1.83a9.38,9.38,0,0,0,.27-2.11c0-.4-.24-.74-.28-1.13-.07-.65.36-1,0-1.69a2.17,2.17,0,0,0-.31-.53c-.74-.91-1.46-.2-2.39-.2s-1.75-.49-2.67-.53c-.61,0-1.69.28-2.22,0s-.67-1.79-.74-2.4a9,9,0,0,1,.14-1.26,36.87,36.87,0,0,0,0-4.93c-.13-1-.65-1.83.1-2.67s1.69-.25,2.53-.07c.38.08.75,0,1.13,0a6.61,6.61,0,0,0,1.4.16c.57-.05,1.13,0,1.69-.05,1-.09,2.07-.44,3.1-.44a19.3,19.3,0,0,1,2.25.52c1.51.14,3-.06,4.5.05,1.06.09,2.88-.65,3.78,0,.43.34.3.73.41,1.19.07.3.28.56.37.84a8,8,0,0,1,.19,1.22c-.57,1.34-.17,2.84-.1,4.27C159.39,14.87,159.09,16.49,158.34,16.8Z"/><path class="cls-2" d="M138.79,12.24c.11,1.08.1,2.16.12,3.24,0,.42-.28.84-.07,1.23.6,1.12,2,1,3,1.24a3.75,3.75,0,0,0,1.68.31c1-.16,1.55-.92,2.5,0a5.44,5.44,0,0,1,.74,1.33,3.26,3.26,0,0,1,.61,1.27c0,.38-.25.72-.26,1.12,0,.57.14,1.13.11,1.69-.05.8-.28,1.58-.32,2.39.89.07,1.27.61.57,1.27.08.79,0,1.44-.85,1.69.28.9.94,2.4-.14,3a5.37,5.37,0,0,0,0,1.13c.17.7.62,1,0,1.55V35c.77.73,0,2,.09,3,.18,2.63-.43,5.26-.42,7.88a7.23,7.23,0,0,0,.05,2c.9.07,1.15.85.14,1l-.14.7-.14,1.13.14,1.12c.95.33,1,.92.28,1.55.56.18.75-.36,1.27-.4.33,0,.65.2,1,.22a7,7,0,0,0,1.69-.24c-.19-.68-.14-1,.56-1.27V49.53a3.72,3.72,0,0,1,0-1.83c.14-.59-.16-1.23-.14-1.83a31.69,31.69,0,0,0,.26-3.51,7.84,7.84,0,0,0-.41-1.27,8.64,8.64,0,0,1-.15-2,11.25,11.25,0,0,0,.06-2.25c-.07-.42-.63-.79-.56-1.25s.42-.4.7-.44c0-1.81-.56-3.52-.36-5.34.08-.81-.43-1.09.36-1.7-.29-1-1.33-1.52-.28-2.39a3.14,3.14,0,0,1,.42-2.11c-.59-.2,0-2.39.28-2.67a8.53,8.53,0,0,1,.29-2.82,1.77,1.77,0,0,1,.33-1c.61-.6,1.24-.17,1.92-.35s1.22-.89,2-1a11.65,11.65,0,0,1,1.83.17c0-.4-.37-.88-.3-1.26s.5-.47.67-.78-.06-.84-.23-1.2c-.77,0-.36-1.21-.14-1.26,1.38-.36.28-2.16.14-3a8,8,0,0,1-1.55.49c-.7.08-1.41-.29-2.11-.26a24.14,24.14,0,0,1-3.8.05c-.7-.09-1.27-.54-2-.64a10.39,10.39,0,0,0-1.83.22,6.5,6.5,0,0,1-1.69.21c-.84,0-1.69,0-2.53.07-.37.64-1.65.33-2.21-.05-.36-.23-.79-.71-1.22-.28s-.14.8-.05,1.18,0,.84.15,1.23C139,11.4,139.78,11.74,138.79,12.24Z"/><path class="cls-3" d="M132.58,3.8c0-.74.68-1.6.36-2.35a1.58,1.58,0,0,0-1.18-.61c-.49-.08-.93.22-1.41.22-.81,0-1.59-.28-2.39-.35-2-.15-3.94.32-5.91.22-1.27-.06-2.54-.6-3.8-.62-2,0-3.88.3-5.77-.31-.53.46-.92.06-1.55.14s-1.29.37-2,.46c-.42.05-.84,0-1.27,0-.84,0-1.58.31-2.39.37-.44,0-.84-.19-1.26-.18-.66,0-1.31.27-2,.29-.86,0-1.71-.13-2.54-.12-.34,0-.64.2-1,.22A7.67,7.67,0,0,1,93.9.28c-.42,1.27-.07,2.53,0,3.8a10.73,10.73,0,0,0-.08,1.13A8.72,8.72,0,0,1,94,6.47c0,.57-.28,1.13-.29,1.69,0,1.94.22,4.08-1,5.77.53.85.22,1.76.1,2.67-.11.75-.14,1.51-.26,2.26-.3,1.91,0,3.85-.15,5.77-.08,1-.47,2-.62,3-.12.74,0,1.49-.06,2.23a81.94,81.94,0,0,0,0,8.44,8.54,8.54,0,0,1-.11,1.83c-.07.35-.3.63-.34,1,0,.52.24,1,.14,1.55a8.27,8.27,0,0,0-.36,1.13,10.86,10.86,0,0,0,.36,2.1,24.45,24.45,0,0,1,.15,3c0,1-.2,2.07-.23,3.09a13.13,13.13,0,0,1,.14,2.26,28.25,28.25,0,0,0-.81,3.23A5.71,5.71,0,0,0,91,58.68c1-.08,1.55-1.1,2.53-1.36.56-.15,1.23.15,1.83,0,.45-.08.82-.38,1.27-.48a14.64,14.64,0,0,1,2.39,0c.66,0,1.31-.25,2-.26,1,0,2,.16,3,.21s2.09-.07,3.1-.07c.54,0,1-.39,1.54-.34.79.06,1.59.46,2.4.52,1.35.13,2.86.08,4.22.08,1.69,0,3.36-.59,5.07-.67.94,0,1.53.73,2.39.76a8.38,8.38,0,0,0,2.39-.55c.64-.17,1.36,0,2-.24a5.82,5.82,0,0,0,.87-.63c.34-.21.82-.15,1.1-.44s.27-1,.71-1.47c-.11-.52,0-1-.15-1.54a7.93,7.93,0,0,1-.23-1c0-.73.23-1.51.28-2.25.08-1.5.09-3,.18-4.5,0-.35-.13-.65-.14-1s.23-.73.23-1.12c0-1-.13-2.07,0-3.1.07-.7.42-1.41.47-2.11,0-.54-.35-1-.3-1.55,0-.39.22-.74.28-1.12.1-.7,0-1.41.18-2.12a9.06,9.06,0,0,0,.35-1.12c0-.34-.19-.64-.19-1,0-1.24,0-2.53-.05-3.8a22.23,22.23,0,0,1,0-4.08,16.54,16.54,0,0,0,.33-2.11c0-.84.35-1.91,1.34-1.83V18c-.71,0-1.16-.42-.56-1a1.66,1.66,0,0,1,.14-1.41c-.32-1.06.14-2.42.22-3.52,0-.52-.12-1-.08-1.55A40.22,40.22,0,0,0,132.58,3.8Zm-4.4,6.47c-.53.44-1.08,0-1.65,0s-1.08.24-1.54-.47c-.52.8-1.94.76-1.69-.42a6.13,6.13,0,0,1-.64.79c-1,.76-1.93.48-3,.34h0l-.08.05a.61.61,0,0,1-.38.42,6.23,6.23,0,0,1-1.83.1c-.41,0-.81.23-1.23.23a.56.56,0,0,1-.55-.35h-.31c-.27.39-.51.26-.63,0h-.06v.16c-1.06,0-2.74-.32-3.62.49-.5.47,0,1.2-.09,1.76-.23,1.8-.09,3.68-.33,5.49-.09.59.16,1.41-.32,1.83a9,9,0,0,1,.27,3.35c0,.46-.21,1.15,0,1.57a2.4,2.4,0,0,0,1,.85c0-.46.14-.55.56-.71a4.18,4.18,0,0,0,1.69,0,12.61,12.61,0,0,1,1.73.14c.38,0,.94-.22,1.28.09s.43,1.63.44,2.16a22.36,22.36,0,0,1,0,3.66c-.06.53-.35,1-.39,1.54s.38,1.31.34,2-.61.71-1,.85L116,36a.53.53,0,0,1-.07.2c-.33.52-1.88.22-2.29-.06a1.27,1.27,0,0,1-.36-.71,6.43,6.43,0,0,1-3,1c0,.85-.17,1.69-.14,2.53,0,.43.2.85.18,1.27s-.2,1.12-.25,1.69a10.63,10.63,0,0,1,0,1.26c-.09.38-.45.62-.51,1-.2,1.41.84,2.9.65,4.32a1.07,1.07,0,0,1-.14.35l0,0a.7.7,0,0,1-.42.56c.35.65.67,1.64-.19,2.12a5.44,5.44,0,0,1-1.36.2c-.61.08-1.24-.33-1.83-.46a15.61,15.61,0,0,0-2.71-.3,2.15,2.15,0,0,1,.6.13c-.49,0-.93.23-1.42.25a9.9,9.9,0,0,1-1.53-.22,2.69,2.69,0,0,1-1.27-.29c-.6-.42-.6-1.57-.72-2.27a12.83,12.83,0,0,1-.12-3.66,11.25,11.25,0,0,0,.25-1.12c0-.76-.2-1.49-.11-2.26-.58-.5-.14-1.68-.28-2.39a12.65,12.65,0,0,1,0-2.95c.05-1.48,0-3,.14-4.4.08-.81-.29-1.41.14-2.22-.8-.26-.43-1.53-.49-2.25a38.34,38.34,0,0,1-.3-5.77c0-.84-.5-1.74.51-2.11-.62-1.15-.21-2.42-.18-3.66,0-.76-.16-1.49-.2-2.25,0-.56.14-1.12.09-1.69s-.29-1.26-.28-2,.25-1.11.28-1.68c0-.39,0-.89.25-1.19s.79-.2,1.16-.29c1.51-.35,2.85,0,4.36,0,.62,0,1.33-.32,1.67.1a.63.63,0,0,1,.56-.29.65.65,0,0,1,.55.26c.2-.48.67-.51,1.3-.68a9.19,9.19,0,0,1,4.51.07c.46.13,1.08,0,1.4.36a16.64,16.64,0,0,1,3.24-.66c1.11,0,2.25.45,3.38.43.54,0,1-.24,1.55-.29s1,.15,1.54.15a4.31,4.31,0,0,1,1.48.06,3,3,0,0,1,1.31.12c.52.19.59.72.81,1.17C128.2,8.16,129.07,9.53,128.18,10.27Z"/><path class="cls-1" d="M118.67,7.88a1.7,1.7,0,0,1-1.13.42c-.14.39-.79.85-.71.14,0-.38.43-.75.57-1.12-.64.25-1.26.68-1.83.14-.86.18-1.77.73-2.11-.42a13.31,13.31,0,0,0-5.48.07c-.44.07-.81-.19-1.23-.13a10.86,10.86,0,0,0-1.31.48,2.44,2.44,0,0,1,.09.84c-.25,1.27-1.3-.05-1.35-.7a7.14,7.14,0,0,0-1.14.06c-.48,0-.92-.28-1.4-.32a5.1,5.1,0,0,0-2,.4c.78,1.09-.84,2.11,0,3.31.36.52,1,2.88,0,3,0,1.09.06,2.16.14,3.24.74.07.81,1.63.47,2.06-.21.26-.47.21-.75.19a2.71,2.71,0,0,0,0,1.69c1.13,0,.89,1.12-.14.84a4,4,0,0,1,0,1.55c.81.25.61.75,0,1.13a8.74,8.74,0,0,1,.28,2.39c.13,0,.27,0,.43,0a.64.64,0,0,0-.2.23c-.54,1.07.81,2.26-.09,3,.11.47.47.93.46,1.41s-.35.91-.19,1.36.68.37.69.76-.31.44-.53.56a3.59,3.59,0,0,1,.21,1.4c-.16.67-.6,1.09-.64,1.83a9.75,9.75,0,0,0,.27,2.11c0,.34-.08.65-.06,1a29.91,29.91,0,0,1,.32,3.27,15.09,15.09,0,0,0-.1,4.19c.78-.24,2.81,1,2.81,1,.69.21,1.29.74,2,.9s1.08-.27,1.68-.11.71.54,1.16.67a2.73,2.73,0,0,0,1.1-.05c-.22-.63-1.42-1.18-.57-1.83a1.28,1.28,0,0,1,.43-.14,9.28,9.28,0,0,1,0-2c0-.28.11-5.3.75-5.35a26.41,26.41,0,0,0,0-2.95c-.12-.8-.36-1.82.35-2.46a4.89,4.89,0,0,1,1.92-.63c.93-.28,1.5-.95,2.26,0a7.47,7.47,0,0,0,1.54-.42c.21.36.29.43.71.42V35c-.47-.28-.67-.54-.28-1-.22-1-.53-1.62.42-2.39-.11-1,0-2,0-2.95a16.8,16.8,0,0,1-.24-2l-.71.14a1.26,1.26,0,0,1,.14.44c.09,1.11-1,.36-1.38.9s1,.81.35,1.39-2.06-.18-2.25-.9a3,3,0,0,1,.47-1.69c-.43,0-.84.29-1.27.24-.67-.07-2.08-1.09-2.19-1.79s.41-1.47.5-2.11c-1.2.06-.64-.55-.14-1.13-.85-.55-1-1.23.14-1.54a26.62,26.62,0,0,1,0-2.68c-.48-.42-.48-.7,0-1.12a1.77,1.77,0,0,1-.94-.57c-.57-1,.23-1.5,1.09-1.26a11.26,11.26,0,0,1-.08-1.83c0-.42-.29-.85-.21-1.27a2.39,2.39,0,0,1,.71-1c1.15-1.15,2.45-1.15,3.94-.73.42-1.5,2.79-1.79,3.23-.14A9.77,9.77,0,0,1,119,9.85a2.19,2.19,0,0,1,.42-1.55Z"/><path class="cls-4" d="M88.72,45.54c-.55-.43-1.7.16-2.3.25a9.93,9.93,0,0,0-1.55.11,7.53,7.53,0,0,1-1.41.53,19.33,19.33,0,0,1-2.11-.17c-.56,0-1,.24-1.55.24s-.71-.41-1.13-.5-.84.15-1.26.15-1.13-.35-1.69-.3a5.65,5.65,0,0,0-1,.33c-.71.17-1.42.12-2.11.25a10.89,10.89,0,0,1-1.55.37c-.56,0-1-.39-1.55-.36s-.67.42-1.13.39a13.38,13.38,0,0,1-2-.55,5.35,5.35,0,0,0-1,0c-.75,0-1.47-.21-2.25-.18-.62,0-1.21.21-1.83.25a19.46,19.46,0,0,0-2.53,0c-1.46.25-2.91.74-4.37.24a5.36,5.36,0,0,1,.14,1.83c2.21.8,4.62.42,6.9.46a8.1,8.1,0,0,1,1,.2c.65.08,1.32,0,2,.07s1,.28,1.55.32c2.43.17,4.89,0,7.32.21,1.26.1,2.51.4,3.8.42,1,0,1.87-.37,2.81-.35s1.5.39,2.25.44c.43,0,.82-.26,1.27-.23s1,.36,1.55.43A14.85,14.85,0,0,0,89,50.29c0-1.2.09-2.33,0-3.51C88.93,46.41,89.06,45.8,88.72,45.54Z"/><path class="cls-4" d="M54.82,35a3.46,3.46,0,0,1-.18,2.67,5.92,5.92,0,0,1,0,2c0,1.36.08,2.73,0,4.08a58.27,58.27,0,0,0,8-.14c2.08-.1,4.25.1,6.33-.14.49-.08.91-.36,1.4-.41,1.86-.18,3.77.43,5.63,0-.16-1.06.75-1.41,1-.28,2.16,0,4.31.25,6.47.14.94-.06,1.88-.4,2.82-.52a17.31,17.31,0,0,1,2.39,0c0-.78.21-1.5.25-2.26,0-1.19-.14-2.46-.2-3.65,0-.7.09-1.41,0-2.12a12.81,12.81,0,0,1-.28-1.26,21.06,21.06,0,0,0,.12-2.25c0-.43-.3-.82-.31-1.27a16.25,16.25,0,0,1,.21-1.69c.15-1.52.3-3.12.31-4.64,0-1.36-.14-2.73-.11-4.08,0-.67.24-1.31.24-2A44.58,44.58,0,0,1,89.4,9c-2.55,0-5.21,0-7.74.14-.67,0-1.29.28-2,.28-1.16,0-2.23-.31-3.38-.37a14.18,14.18,0,0,0-2,.31c-.89.06-1.79-.25-2.67-.25-1.42,0-2.81.24-4.22.31-1,0-2.06-.1-3.1-.14a18.93,18.93,0,0,1-2.25-.55,14,14,0,0,0-1.83-.2,9.91,9.91,0,0,1-1.54.14c-.75-.08-2.12-.27-2.57.51-.63,1-.43,1.93-.46,3.05a14.06,14.06,0,0,1-.29,1.55c-.06.43,0,.84,0,1.27-.06.61-.36,1.21-.36,1.83,0,.33.13.65.13,1S55,18.8,55,19.28A11.79,11.79,0,0,1,55.19,21c-.1.89-.48,1.77-.55,2.67S55,25.22,55,26c0,1.62-.28,3.3-.36,4.93A23.19,23.19,0,0,0,54.82,35Zm5-11.54a8.19,8.19,0,0,1,1.34-2.39,12.77,12.77,0,0,1,3-3.28,6.41,6.41,0,0,1,.94-.3c.44-.21.71-.75,1.15-1a10.36,10.36,0,0,1,2.22-.81A7.93,7.93,0,0,1,71.38,15L71,14.78a9.52,9.52,0,0,1,4.08,0c.36.11.63.37,1,.48s.89-.2,1.34,0a10,10,0,0,1,4.14,5h-.28c.71.25.64.93.9,1.55a18.34,18.34,0,0,1,1.28,3.24,19.15,19.15,0,0,1,.48,2.25,12,12,0,0,1-.27,2.81c-.1.65.06,1.35-.09,2-.67,2.71-2.65,5.77-5.53,6.34-1.15.42-2.32,1.27-3.52,1.46C71.25,40.4,68,39,64.8,38.7l.14-.71-.14.57a5.83,5.83,0,0,1-2.19-1.9,6.79,6.79,0,0,1-.86-.92,24.53,24.53,0,0,1-.89-2.38,20.21,20.21,0,0,1-1-2.26,16.79,16.79,0,0,1-.12-2.25A15.51,15.51,0,0,1,59.8,23.5Z"/><path class="cls-3" d="M68.86,16.89a1.52,1.52,0,0,1-.06,1.22c-.22.32-.76.67-1.07.26a2.21,2.21,0,0,1-.14-1.2c-.88.1-1,.78-1.69,1.21-.47.3-1.06.43-1.51.76a10.78,10.78,0,0,0-2.46,2.67,6.43,6.43,0,0,0-1.09,1.83,4.1,4.1,0,0,0,0,1,19.1,19.1,0,0,1-.41,3.09c.32.14,1,.28,1,.71s-.4.57-.53.87a3.71,3.71,0,0,0,0,1.52c.09.38.4.53.56.87a3.2,3.2,0,0,1,.14.82c.19.66.53,1,.42,1.68.76.23.94,1,1,1.69.61,0,1.25-.4,1.82-.34,1,.1,0,1.14-.42,1.33.49.32.71.51.71,1.12,1-.54,1,.12,1.83.38a28.78,28.78,0,0,0,4.22.69c.67.09,1.3,0,2,0a4.76,4.76,0,0,0,1.55.07c.73-.23,1.36-.8,2.11-1.06a16.32,16.32,0,0,0,2.66-.9,5,5,0,0,0,1.94-2c.14-.28.16-.64.32-.93a12.59,12.59,0,0,0,1-1.89,9.89,9.89,0,0,0,.15-2c.28-2.05.52-4.2-.37-6.19a2.66,2.66,0,0,0-1.09-1.37c-.5-.21-1.67,0-1.74-.74s1.14-.67,1.62-.56c-.3-1-2-1.91-1.69-3a2,2,0,0,0-.72-.92c-.73-.41-1.49-.2-2.09-.9-.81,0-1.2-.8-2-1a7.85,7.85,0,0,0-4.08.36,5,5,0,0,0-1,.15C69.41,16.4,69.18,16.72,68.86,16.89Z"/><path class="cls-2" d="M51.93,2.64c-1.09-1-3.17-.39-4.46-.25-1.76.17-3.43-.1-5.21-.08a17.48,17.48,0,0,1-2.81.26,4.4,4.4,0,0,1-1.13-.46c-.56.62-1,.56-1.41-.14a14,14,0,0,1-5.76.62c-.48,0-.93-.31-1.41-.25A15.77,15.77,0,0,0,27.91,3a10.51,10.51,0,0,1-1.27-.12c-.44,0-.82.32-1.26.32S24.53,3,24.11,3s-1,.14-1.55.09c-.76,0-1.49-.33-2.25-.37-1.55-.09-3.1.2-4.64.13-.76,0-1.49-.28-2.25-.27a20.34,20.34,0,0,0-3.5.31c-.35.08-.65.29-1,.35-.51.09-1,0-1.55.07a13.46,13.46,0,0,1-1.54.42c-1.28.06-2.4-.54-3.66-.45a4.08,4.08,0,0,1,.76,1c.36.95-.3,1.87-.34,2.81s0,1.68-.08,2.53c-.06.48-.26.92-.3,1.41s0,1.13-.09,1.68c-.2,1.05-.57,2.06-.75,3.1a15.41,15.41,0,0,0-.05,3c0,1.68,0,3.39-.09,5.06-.05.77-.34,1.5-.41,2.25-.08.93.32,1.87.26,2.82,0,.34-.18.64-.22,1A16.14,16.14,0,0,0,1,31.66c0,1.23-.4,2.44-.43,3.66,0,.39.14.74.15,1.13A10.22,10.22,0,0,1,.43,38c-.1.65,0,1.33-.14,2A7.4,7.4,0,0,0,0,41c0,.38.19.74.19,1.12a4.09,4.09,0,0,0,.14,2c.14-.07.12.29,0,.14-.25.62.1,1.3,0,2a9.78,9.78,0,0,0,1.12.37,7.81,7.81,0,0,0,1.27-.08c.7,0,1.41.09,2.11,0S6,46.19,6.52,46.2c1,0,2.07.38,3.1.45.75.07,1.62-.06,2.39,0,.59,0,1.08-.45,1.69-.4,1.89.18,3.64,1.22,5.48,1.64a9.48,9.48,0,0,0,1.41,0,18.85,18.85,0,0,0,2.25.12,6.1,6.1,0,0,1,1.27-.14,6.18,6.18,0,0,1,1.41.43,21.13,21.13,0,0,0,3.94.7,17.1,17.1,0,0,0-1.8-1.26c-.23-.21-.39-.51-.11-.77s1.05,0,1.48.11c1.26.31,2.78,1.23,4.09,1.14a20.59,20.59,0,0,1,3-.18c.55,0,1.16.46,1.69.4s.79-.47,1.27-.55a10.93,10.93,0,0,1,1.4.06c.45,0,.82-.3,1.27-.31.92,0,1.9.18,2.81.09.51-.08.89-.51,1.41-.51.7,0,1.38.53,2.11.48s1-.87,1.69-.91,1.38.47,2.11.52a15,15,0,0,1-.56-2.81,11.13,11.13,0,0,1,.23-1.55c.09-1,0-2,0-3,.14-1.44.42-2.9.42-4.36.1-7.43.52-14.91,0-22.37,0-.63.23-1.21.25-1.83A47.12,47.12,0,0,0,52,5.21C51.91,4.39,52.71,3.38,51.93,2.64ZM48.08,31c-.16.35-.61.23-.89.18a5.72,5.72,0,0,1-1.65,1.58c-.4.56-1.24.72-1.87,1.2-.28.21-.39.54-.64.78-.54.53-1.27.88-1.86,1.37-.32.23-.47.63-.77.91-.58.55-1.4.78-1.8,1.48H38c-.09.56-.3.66-.84.71A14.72,14.72,0,0,1,36.88,36c0-.12-.29-1.49,0-1.73-.22-.22.29-4.77.34-6,0-.28-.08-3.11-.08-3.24a9.72,9.72,0,0,0-.48-3.08.79.79,0,0,0-1.06-.43c-1.49.58-2.29,2.46-3.28,3.59-.43.5-1.16.84-1.51,1.37-.56.84-.75,2.29-1.83,2.63,0,.57-.15.82-.7,1-.24,1.43-2,.37-2.36-.46,0,0-1.66-1.19-2-1.37a2.5,2.5,0,0,1-.53-.41,2.76,2.76,0,0,1-.35-.43,5.47,5.47,0,0,1-.88-1.56c-.09-.47.08-.52,0-.72-.28-.44-1-.06-1.77-.57-.3-.21-.36-.37-.67-.46a1.44,1.44,0,0,0-.94.1c-.31-.47-.74-.76-1-.67s-.5.67-.61,1.2A17.21,17.21,0,0,0,17,26.55c-.08.53-.37,1-.5,1.55-.28,1.21-.41,2.45-.72,3.66-.21.79-.36,2.07-1.09,2.53.14.67.22,1.43-.42,1.83.23,1-.32,1.93-.42,3,0,.39,0,1-.46,1.16s-.76-.12-1.09-.17c-.95-.14-1.87-.42-2.82-.56s-2.68.15-3.42-.89A1.74,1.74,0,0,1,6,37a14.56,14.56,0,0,1,.38-2c-.68-.89-.49-2.59-.18-3.66a1.75,1.75,0,0,1,0-.42,11.92,11.92,0,0,0,0-1.69c.07-.76.54-1.46.62-2.25C7,25.14,6.8,23.19,7,21.34c.1-.89-.53-2.57.61-2.95A9.77,9.77,0,0,1,7.36,17c.84-.82.64-1.91.75-3,.14-1.33.41-2.64.62-3.94a16,16,0,0,1,.18-2,9.82,9.82,0,0,0,1.83-.4,26.49,26.49,0,0,1,4.36-.31c.67,0,1.72-.17,2.11.43.72-.31,1.09-.43,1.13-.37a8.42,8.42,0,0,0,1.24-.15A15.71,15.71,0,0,1,21.15,7c1.09-.11,2-.24,2.54.34a5.16,5.16,0,0,1,.39.82,18.77,18.77,0,0,1,1.43,3.17c.1.32,0,.66.15,1a13,13,0,0,1,.65,1.53s1,2.18,1.18,2.71a8.22,8.22,0,0,0,1.26-3.24c.37-1.16.92-2.23,1.33-3.37.22-.65.4-2,1.11-2.31s1.4.2,2.06.09a20.93,20.93,0,0,1,2.12-.43c1.54-.08,3.21.2,4.78.25.8,0,2.11-.62,2.74,0s.45,1.5.67,2.21a22.11,22.11,0,0,1,.61,3.37c.06.43.33.73.41,1.13.21,1,.21,2.08.4,3.09s.66,2,.92,3a23.14,23.14,0,0,1,.34,3.1c.07.64.36.89.1,1.54.76.29.68.77.88,1.45a12.22,12.22,0,0,1,.8,3.31C48,30.14,48.25,30.65,48.08,31Z"/><path class="cls-4" d="M46.66,27.48c-.13-.29-.46-.45-.52-.74s.13-.7.2-1a1.52,1.52,0,0,1-.7-.56c-.88.14-.93-.7-1-1.41-.28.16-.56.54-.85.58a.49.49,0,0,1-.27-.93c.31-.11.6.09.84.21a.9.9,0,0,1,.85-.42c-.15-.92-.91-1.22,0-2l-.28-1.13c-1.66.28-.54-1.65-.85-2.53-.21.06-.44.18-.64,0s0-.48.22-.51.42.14.56.21c-.17-.88-.3-1.81-.52-2.68-.11-.42-.35-.83-.42-1.26s.09-.75,0-1.13S43,11.42,42.87,11c-.19-.84-.27-1.69-.47-2.54-1.12.07-2.26-.1-3.37-.09-.44,0-.85.2-1.27.2s-1-.34-1.53-.31c-.3,0-.58.2-.87.2a6,6,0,0,0-1.12-.07c-.85.16-1.12.42-2,.07a1,1,0,0,1-1,.43,4.65,4.65,0,0,0-.29.84l.43.14a4.29,4.29,0,0,0-1.34,2.25c-.38,1.07-.73,2.15-1.07,3.24-.23.72-.62,2.08-1.4,2.4s-1.24-1.58-1.4-2.12c-.34-1.07-1-2-1.41-3-.15-.38,0-.8-.2-1.22A34,34,0,0,0,22.7,7.88c-.6,0-1.23.06-1.83,0-.36,0-.7-.25-1.06-.16a4.36,4.36,0,0,0-1.39.58c-.23.17-.36.55-.66.6s-1-.46-1.53-.48c-.64,1.22-1.29-.13-2.14-.22-.47-.05-.91.31-1.38.36s-.74-.12-1.12-.11a14.32,14.32,0,0,0-2,.4c-.32,2.49-.71,7.45-.71,7.45L8.77,17l-.28.7c.68.73.22,1.48-.7,1.55a6.25,6.25,0,0,1,.14,2.39c-.17,1,.6,2.4-.14,3.1a6.3,6.3,0,0,1-.08,1.68,4.72,4.72,0,0,1,0,1,15.7,15.7,0,0,0-.61,1.83c-.06.35.22.56.36.85.22.57-.28.89-.7,1.12a10.79,10.79,0,0,1,0,2.95,1.79,1.79,0,0,1,.42.25c.75.77-.56,1.08-.73,1.75-.11.32.2.55.28.83a2.29,2.29,0,0,1-.11,1,1.29,1.29,0,0,1,.56.57,21.1,21.1,0,0,1,4.93.7c-.16-.84.16-1.17,1-.84l.14-.57c-.78-.65-.36-1-.14-1.83-.19.16-.42.43-.7.4-.7,0-.14-.67.14-.82-.28-.48-.56-1,0-1.39s1.39-.16,1.83-.75a6.21,6.21,0,0,0,.7-2.36c.24-1.12.42-2.25.66-3.38.1-.48.33-.92.39-1.41a8.39,8.39,0,0,1,.36-2.66c.62-1.17,2.36-1.54,2.39.13.28-.09.66-.38,1-.34s.48.28.74.38a6,6,0,0,0,1,.17c.8.21,1.89,1.11,1.12,1.9a6.75,6.75,0,0,0,1.73,1.55c.69.43,1.61.42,1.65,1.41.84.63,1.05,1.28,2.11.56a1.51,1.51,0,0,1,0-1.55c-.66-.6,0-1.05.42-.28a4,4,0,0,1,.85,0c.28-.51.27-1.34.64-1.76s.82-.41,1.17-.69a8.34,8.34,0,0,0,2-2.62c.3-.61,0-1.3.24-2s.66-.5,1.14-.43c.46-.44.81-.31,1,.28,1.11.12,3.38,1.56,2,2.68.33.86.7,2.67,0,3.37a6.52,6.52,0,0,1,.7,1.56c.07.38-.22.75-.28,1.12s.12.74.08,1.12-.26.75-.33,1.13c-.14.72.17,1.16-.45,1.69.13.62.48,1.17,0,1.69.41.93.26,1.85.84,2.67a5.94,5.94,0,0,0,2.28-1.8c.38-.36.9-.45,1.3-.79s.74-1,1.21-1.35c.06-1.24.78-1,1.68-1.1a5.79,5.79,0,0,0,1.13-.45c-.05-1,.52-1.35,1.41-1.55A6.49,6.49,0,0,0,46.66,27.48Z"/></g></g></svg>